<svg width="28" height="28" viewBox="0 0 28 28" fill="none" xmlns="http://www.w3.org/2000/svg">
<path d="M21.3911 5H19.4938V7C19.4938 7.4 19.1776 7.66667 18.8614 7.66667C18.5452 7.66667 18.229 7.4 18.229 7V5H8.1105V7C8.1105 7.4 7.79429 7.66667 7.47809 7.66667C7.16188 7.66667 6.84568 7.4 6.84568 7V5H4.94846C3.99985 5 3.3042 5.86667 3.3042 7V9.4H23.5412V7C23.5412 5.86667 22.4029 5 21.3911 5ZM3.3042 10.8V23C3.3042 24.2 3.99985 25 5.0117 25H21.4543C22.4661 25 23.6045 24.1333 23.6045 23V10.8H3.3042ZM8.93262 22H7.41485C7.16188 22 6.90892 21.8 6.90892 21.4667V19.8C6.90892 19.5333 7.09864 19.2667 7.41485 19.2667H8.99587C9.24883 19.2667 9.50179 19.4667 9.50179 19.8V21.4667C9.43855 21.8 9.24883 22 8.93262 22ZM8.93262 16H7.41485C7.16188 16 6.90892 15.8 6.90892 15.4667V13.8C6.90892 13.5333 7.09864 13.2667 7.41485 13.2667H8.99587C9.24883 13.2667 9.50179 13.4667 9.50179 13.8V15.4667C9.43855 15.8 9.24883 16 8.93262 16ZM13.9919 22H12.4109C12.1579 22 11.9049 21.8 11.9049 21.4667V19.8C11.9049 19.5333 12.0947 19.2667 12.4109 19.2667H13.9919C14.2448 19.2667 14.4978 19.4667 14.4978 19.8V21.4667C14.4978 21.8 14.3081 22 13.9919 22ZM13.9919 16H12.4109C12.1579 16 11.9049 15.8 11.9049 15.4667V13.8C11.9049 13.5333 12.0947 13.2667 12.4109 13.2667H13.9919C14.2448 13.2667 14.4978 13.4667 14.4978 13.8V15.4667C14.4978 15.8 14.3081 16 13.9919 16ZM19.0511 22H17.4701C17.2172 22 16.9642 21.8 16.9642 21.4667V19.8C16.9642 19.5333 17.1539 19.2667 17.4701 19.2667H19.0511C19.3041 19.2667 19.5571 19.4667 19.5571 19.8V21.4667C19.5571 21.8 19.3673 22 19.0511 22ZM19.0511 16H17.4701C17.2172 16 16.9642 15.8 16.9642 15.4667V13.8C16.9642 13.5333 17.1539 13.2667 17.4701 13.2667H19.0511C19.3041 13.2667 19.5571 13.4667 19.5571 13.8V15.4667C19.5571 15.8 19.3673 16 19.0511 16Z" fill="#235884"/>
</svg>
