<svg width="28" height="28" viewBox="0 0 28 28" fill="none" xmlns="http://www.w3.org/2000/svg">
<path d="M19.4928 11.0812C19.1129 11.0812 19.0227 10.8518 19.2916 10.5687L19.7777 10.0554C20.2264 9.58329 20.2264 8.8184 19.7777 8.34543L18.1556 6.63502C17.7073 6.16245 16.9813 6.16205 16.5327 6.63542C16.5327 6.63542 16.3154 6.86485 16.0465 7.1479C15.7784 7.43095 15.5604 7.3358 15.5604 6.93541V6.20963C15.5608 5.54151 15.0478 5.00121 14.4137 5L12.1184 5.0004C11.4838 5.0004 10.9701 5.54191 10.9701 6.21003C10.9701 6.21003 10.9701 6.53462 10.9701 6.9346C10.9701 7.33418 10.7525 7.42894 10.484 7.14629L9.99822 6.63421C9.54994 6.16205 8.82512 6.16205 8.3757 6.63381L6.75318 8.34463C6.30528 8.81759 6.30452 9.58208 6.75356 10.0563C6.75356 10.0563 6.9712 10.2857 7.2397 10.5691C7.50821 10.8522 7.41794 11.0816 7.03737 11.0816H6.34888C5.7151 11.0816 5.20142 11.6231 5.20142 12.2912V14.7105C5.20142 15.3786 5.7151 15.9201 6.34888 15.9201C6.34888 15.9201 6.65717 15.9201 7.03698 15.9201C7.4168 15.9201 7.50706 16.1496 7.23856 16.4326L6.75241 16.9451C6.30413 17.4177 6.30413 18.183 6.75241 18.6559L8.37493 20.3667C8.82359 20.8389 9.54956 20.8393 9.99822 20.3667C9.99822 20.3667 10.2159 20.1377 10.484 19.8543C10.7521 19.5716 10.9701 19.6664 10.9701 20.0663V20.7905C10.9701 21.3756 11.3637 21.8631 11.887 21.9755C11.9615 21.9913 12.0396 22.0005 12.1191 22.0005H14.4133C15.0475 22.0001 15.5608 21.4586 15.5615 20.7905C15.5615 20.7905 15.5615 20.4659 15.5615 20.0655C15.5615 19.6652 15.7792 19.57 16.0477 19.8531L16.5338 20.3655C16.9825 20.8389 17.7084 20.8389 18.1575 20.3663L19.7796 18.6559C20.2279 18.1834 20.2279 17.4173 19.7796 16.9443C19.7796 16.9443 19.5624 16.7157 19.2935 16.4318C19.0254 16.1492 19.1149 15.9193 19.4939 15.9193H20.1805C20.8143 15.9193 21.3279 15.3778 21.3279 14.7097V12.2904C21.3279 11.6223 20.8143 11.0808 20.1805 11.0808C20.1805 11.0812 19.8726 11.0812 19.4928 11.0812ZM13.2643 17.4656C11.1866 17.4656 9.50251 15.6907 9.50251 13.5005C9.50251 11.3102 11.1866 9.5349 13.2643 9.5349C15.342 9.5349 17.0261 11.3102 17.0261 13.5005C17.0261 15.6907 15.342 17.4656 13.2643 17.4656Z" fill="#235884"/>
</svg>
