<svg width="28" height="28" viewBox="0 0 28 28" fill="none" xmlns="http://www.w3.org/2000/svg">
<path fill-rule="evenodd" clip-rule="evenodd" d="M15.914 6.29289C15.6361 6.58579 15.6361 7.05719 15.6361 8C15.6361 8.94281 15.6361 9.41421 15.914 9.70711C16.1918 10 16.639 10 17.5334 10H19.4306C20.3249 10 20.7721 10 21.05 9.70711C21.3278 9.41421 21.3278 8.94281 21.3278 8C21.3278 7.05719 21.3278 6.58579 21.05 6.29289C20.7721 6 20.3249 6 19.4306 6H17.5334C16.639 6 16.1918 6 15.914 6.29289ZM6.42786 18.2929C6.15002 18.5858 6.15002 19.0572 6.15002 20C6.15002 20.9428 6.15002 21.4142 6.42786 21.7071C6.70571 22 7.15289 22 8.04725 22H9.94447C10.8388 22 11.286 22 11.5639 21.7071C11.8417 21.4142 11.8417 20.9428 11.8417 20C11.8417 19.0572 11.8417 18.5858 11.5639 18.2929C11.286 18 10.8388 18 9.94447 18H8.04725C7.15289 18 6.70571 18 6.42786 18.2929ZM15.6361 16C15.6361 15.0572 15.6361 14.5858 15.914 14.2929C16.1918 14 16.639 14 17.5334 14H19.4306C20.3249 14 20.7721 14 21.05 14.2929C21.3278 14.5858 21.3278 15.0572 21.3278 16V20C21.3278 20.9428 21.3278 21.4142 21.05 21.7071C20.7721 22 20.3249 22 19.4306 22H17.5334C16.639 22 16.1918 22 15.914 21.7071C15.6361 21.4142 15.6361 20.9428 15.6361 20V16ZM6.42786 6.29289C6.15002 6.58579 6.15002 7.05719 6.15002 8V12C6.15002 12.9428 6.15002 13.4142 6.42786 13.7071C6.70571 14 7.15289 14 8.04725 14H9.94447C10.8388 14 11.286 14 11.5639 13.7071C11.8417 13.4142 11.8417 12.9428 11.8417 12V8C11.8417 7.05719 11.8417 6.58579 11.5639 6.29289C11.286 6 10.8388 6 9.94447 6H8.04725C7.15289 6 6.70571 6 6.42786 6.29289Z" fill="#235884"/>
</svg>
