<svg width="28" height="28" viewBox="0 0 28 28" fill="none" xmlns="http://www.w3.org/2000/svg">
<path d="M9.68993 23.9997C9.96768 23.9997 10.252 23.998 10.5426 23.998H16.043C16.3332 23.998 16.6175 23.9997 16.8953 23.9997C19.4403 23.9997 21.385 23.8625 21.385 21.0577C21.385 18.1221 19.2553 15.7122 16.5354 15.4502C16.5138 16.4772 13.2937 19.0117 13.2937 19.0117C13.2937 19.0117 10.0728 16.4774 10.051 15.4504C7.33153 15.7122 5.20142 18.1221 5.20142 21.0577C5.20142 23.8625 7.14529 23.9997 9.68993 23.9997ZM15.6962 20.1696C15.6962 20.086 15.7677 20.0187 15.8566 20.0187H16.7265V19.1021C16.7265 19.0092 16.79 18.933 16.8693 18.933H17.7278C17.8067 18.933 17.8705 19.0086 17.8705 19.1021V20.0189H18.7401C18.8282 20.0189 18.9003 20.0862 18.9003 20.1698V21.0744C18.9003 21.158 18.8288 21.2253 18.7401 21.2253H17.8703V22.142C17.8703 22.2353 17.8063 22.3108 17.7272 22.3108H16.8691C16.7898 22.3108 16.7259 22.2355 16.7259 22.142V21.2251H15.8564C15.7679 21.2251 15.696 21.1578 15.696 21.0742L15.6962 20.1696Z" fill="#235884"/>
<path d="M13.2947 16.1868C15.7546 16.1868 17.7485 12.2875 17.7485 9.69452C17.7485 7.10196 15.7546 5 13.2947 5C10.8351 5 8.84119 7.10196 8.84119 9.69452C8.84119 12.2875 10.8351 16.1868 13.2947 16.1868Z" fill="#235884"/>
</svg>
