<svg width="28" height="28" viewBox="0 0 28 28" fill="none" xmlns="http://www.w3.org/2000/svg">
<path d="M20.5913 20.373H7.69337V6.81348C7.69337 6.3642 7.34788 6 6.9217 6C6.49551 6 6.15002 6.3642 6.15002 6.81348V21.1865C6.15002 21.6358 6.49551 22 6.9217 22H20.5913C21.0175 22 21.363 21.6358 21.363 21.1865C21.363 20.7373 21.0175 20.373 20.5913 20.373Z" fill="#235884"/>
<path d="M9.48154 16.9031C9.69042 16.9031 9.89859 16.8142 10.0508 16.6391L12.2002 14.1651L16.0449 15.9451C16.3756 16.0982 16.7629 15.989 16.9769 15.6821L19.3355 12.2997L19.5336 13.7557C19.5888 14.1613 19.9188 14.4538 20.2965 14.4538C20.333 14.4538 20.3699 14.451 20.407 14.4454C20.8289 14.3816 21.1218 13.9694 21.0613 13.5247L20.5927 10.0809C20.5322 9.63614 20.1411 9.32749 19.7193 9.39112L16.4525 9.88507C16.0307 9.94884 15.7377 10.3611 15.7982 10.8058C15.8587 11.2505 16.2498 11.5593 16.6716 11.4955L18.1352 11.2743L16.0996 14.1934L12.3148 12.4411C12.0122 12.301 11.6586 12.3796 11.4354 12.6365L8.9127 15.5401C8.62485 15.8714 8.64628 16.386 8.96055 16.6894C9.10867 16.8325 9.29541 16.9031 9.48154 16.9031Z" fill="#235884"/>
</svg>
