<svg width="35" height="32" viewBox="0 0 35 32" fill="none" xmlns="http://www.w3.org/2000/svg">
<path d="M32.1399 6.43061C32.1395 7.80026 31.6998 9.13367 30.8855 10.235C30.0712 11.3363 28.9253 12.1474 27.6159 12.5493C27.9157 11.5721 28.0676 10.5555 28.0666 9.5333C28.0667 7.73277 27.5985 5.96316 26.7082 4.39819C25.8178 2.83322 24.5357 1.52669 22.9879 0.606856C23.846 0.208498 24.7805 0.00143229 25.7266 0C27.4296 0.00297143 29.0617 0.681986 30.2643 1.88781C31.4669 3.09364 32.1415 4.72761 32.1399 6.43061ZM30.8399 14.3868C30.1117 14.1828 29.3324 14.2763 28.6732 14.6468C27.9321 15.0577 27.1095 15.3003 26.264 15.3572C25.9139 15.8908 25.5071 16.3848 25.0506 16.8308C26.6881 17.3696 28.1459 18.3482 29.2648 19.6597C30.3836 20.9711 31.1204 22.5649 31.3946 24.2668H32.5906C32.9747 24.2722 33.3531 24.1736 33.6858 23.9813C34.0184 23.7891 34.2928 23.5105 34.48 23.175C34.8241 22.5295 35.0028 21.8088 35 21.0773V19.8466C34.9999 17.2639 33.284 15.0278 30.8399 14.3868ZM12.3453 0.606856C11.4871 0.208498 10.5527 0.00143229 9.60659 0C8.07087 0.00106607 6.58644 0.552809 5.42285 1.55505C4.25925 2.55729 3.49364 3.94356 3.26502 5.46217C3.0364 6.98078 3.35994 8.53102 4.17689 9.83142C4.99384 11.1318 6.25002 12.0961 7.71736 12.5493C7.4175 11.5721 7.26555 10.5555 7.26659 9.5333C7.2665 7.73277 7.73462 5.96316 8.62501 4.39819C9.5154 2.83322 10.7974 1.52669 12.3453 0.606856ZM10.2826 16.8306C9.82611 16.3847 9.41928 15.8906 9.0692 15.3571C8.22368 15.3001 7.4011 15.0575 6.65998 14.6466C6.00078 14.2761 5.22142 14.1826 4.49328 14.3866C2.0492 15.0277 0.333284 17.2638 0.333284 19.8466V21.0771C0.330502 21.8086 0.509169 22.5294 0.853284 23.1748C1.03842 23.5083 1.31 23.7856 1.63944 23.9778C1.96887 24.1699 2.344 24.2697 2.72536 24.2667H3.93859C4.21277 22.5648 4.94956 20.971 6.0684 19.6595C7.18725 18.3481 8.6451 17.3694 10.2826 16.8306ZM23.872 19.1881C23.5714 19.1125 23.2631 19.0718 22.9532 19.0667C22.3521 19.0679 21.7614 19.2231 21.2373 19.5174C20.1436 20.12 18.9153 20.4361 17.6666 20.4361C16.4179 20.4361 15.1895 20.12 14.0959 19.5174C13.5718 19.2231 12.981 19.0679 12.38 19.0667C12.0701 19.0718 11.7618 19.1125 11.4612 19.1881C10.0045 19.5831 8.71886 20.4478 7.80373 21.648C6.88861 22.8482 6.39514 24.3169 6.39989 25.8262V27.3344C6.40047 28.218 6.62088 29.0877 7.04128 29.865C7.47459 30.6969 8.34128 31.1997 9.31189 31.1997H26.0213C26.9919 31.1997 27.8586 30.6969 28.2919 29.865C28.7123 29.0877 28.9327 28.218 28.9333 27.3344V25.8265C28.9381 24.3172 28.4447 22.8484 27.5295 21.6481C26.6144 20.4478 25.3287 19.5831 23.872 19.1881ZM25.4666 9.5333C25.4666 7.99061 25.0091 6.48256 24.152 5.19986C23.295 3.91715 22.0768 2.91741 20.6515 2.32705C19.2263 1.73668 17.6579 1.58222 16.1449 1.88318C14.6318 2.18414 13.242 2.92702 12.1512 4.01787C11.0603 5.10872 10.3174 6.49855 10.0165 8.0116C9.7155 9.52465 9.86996 11.093 10.4603 12.5182C11.0507 13.9435 12.0504 15.1617 13.3331 16.0188C14.6158 16.8758 16.1239 17.3333 17.6666 17.3333C19.7353 17.3333 21.7192 16.5115 23.182 15.0487C24.6448 13.586 25.4666 11.602 25.4666 9.5333Z" fill="white"/>
</svg>
