<svg width="25" height="25" viewBox="0 0 25 25" fill="none" xmlns="http://www.w3.org/2000/svg">
<path d="M8.50154 9.83159H8.78538V7.76194C8.78529 5.43824 10.676 3.54775 12.9999 3.54775C15.3238 3.54775 17.2144 5.43824 17.2144 7.76194V9.83159H17.4985C18.3264 9.83159 19 10.5052 19 11.3331V19.4723C19 20.3002 18.3264 20.9738 17.4985 20.9738H8.50154C7.67364 20.9738 7 20.3002 7 19.4723V11.3331C7 10.5052 7.67355 9.83159 8.50154 9.83159ZM15.9274 7.76194C15.9274 6.14791 14.6141 4.83479 12.9999 4.83479C11.3857 4.83479 10.0724 6.14791 10.0724 7.76194V9.83159H15.9274V7.76194ZM8.28704 19.4724C8.28704 19.5886 8.38528 19.6869 8.50154 19.6869H17.4985C17.6147 19.6869 17.713 19.5886 17.713 19.4724V11.3331C17.713 11.2169 17.6147 11.1186 17.4985 11.1186H16.5709H9.4289H8.50154C8.38528 11.1186 8.28704 11.2169 8.28704 11.3331V19.4724Z" fill="#235884"/>
<path d="M13.0001 13.5274C13.3555 13.5274 13.6436 13.8154 13.6436 14.1709V16.6347C13.6436 16.9902 13.3555 17.2782 13.0001 17.2782C12.6447 17.2782 12.3565 16.9902 12.3565 16.6347V14.1709C12.3565 13.8154 12.6447 13.5274 13.0001 13.5274Z" fill="#235884"/>
</svg>
