<svg width="28" height="28" viewBox="0 0 28 28" fill="none" xmlns="http://www.w3.org/2000/svg">
<path d="M13.8536 14.238C12.6497 14.238 11.6072 13.7828 10.7554 12.8847C9.9036 11.9868 9.47181 10.8881 9.47181 9.61885C9.47181 8.35001 9.9036 7.25119 10.7555 6.35297C11.6075 5.45518 12.6498 5 13.8536 5C15.0576 5 16.0998 5.45518 16.9516 6.35312C17.8034 7.25105 18.2354 8.34987 18.2354 9.61885C18.2354 10.8881 17.8034 11.9869 16.9515 12.8849C16.0996 13.7827 15.0572 14.238 13.8536 14.238Z" fill="#235884"/>
<path d="M6.18664 19.7468C6.21121 19.3731 6.26089 18.9655 6.33404 18.535C6.40788 18.1013 6.50295 17.6914 6.61677 17.3167C6.73432 16.9294 6.89422 16.5469 7.09186 16.1804C7.297 15.8 7.53795 15.4687 7.80832 15.1961C8.09104 14.911 8.4372 14.6817 8.83748 14.5145C9.23638 14.3481 9.67844 14.2638 10.1513 14.2638C10.337 14.2638 10.5166 14.3441 10.8635 14.5822C11.0769 14.7289 11.3266 14.8987 11.6053 15.0864C11.8436 15.2465 12.1665 15.3964 12.5652 15.5322C12.9543 15.6649 13.3493 15.7322 13.7392 15.7322C14.129 15.7322 14.5239 15.6649 14.9134 15.5322C15.3117 15.3966 15.6345 15.2466 15.8726 15.0865C16.1486 14.9006 16.3985 14.7309 16.6151 14.5821C16.9616 14.344 17.1413 14.2637 17.327 14.2637C17.8 14.2637 18.2419 14.3481 18.6407 14.5146C19.0407 14.6815 19.387 14.9108 19.67 15.1963C19.9402 15.469 20.1813 15.8001 20.3862 16.1804C20.5837 16.5469 20.7436 16.9292 20.8613 17.3168C20.975 17.6915 21.07 18.1013 21.1439 18.535C21.217 18.9649 21.2667 19.3727 21.2913 19.7472C21.3154 20.1142 21.3276 20.495 21.3276 20.8797C21.3276 21.8808 21.0258 22.6912 20.4305 23.2889C19.8425 23.8787 19.0646 24.1779 18.1186 24.1779H9.35894C8.41291 24.1779 7.63524 23.8788 7.04717 23.2889C6.45174 22.6916 6.14986 21.8811 6.14986 20.8795C6.15 20.4931 6.16235 20.112 6.18664 19.7468Z" fill="#235884"/>
</svg>
