<svg width="28" height="28" viewBox="0 0 28 28" fill="none" xmlns="http://www.w3.org/2000/svg">
<path d="M13.8537 14.238C12.6498 14.238 11.6073 13.7828 10.7555 12.8847C9.90372 11.9868 9.47193 10.8881 9.47193 9.61885C9.47193 8.35001 9.90372 7.25119 10.7556 6.35297C11.6076 5.45518 12.6499 5 13.8537 5C15.0578 5 16.1 5.45518 16.9518 6.35312C17.8035 7.25105 18.2355 8.34987 18.2355 9.61885C18.2355 10.8881 17.8035 11.9869 16.9516 12.8849C16.0997 13.7827 15.0573 14.238 13.8537 14.238Z" fill="#235884"/>
<path d="M6.18676 19.7468C6.21133 19.3731 6.26102 18.9655 6.33416 18.535C6.408 18.1013 6.50308 17.6914 6.61689 17.3167C6.73445 16.9294 6.89434 16.5469 7.09198 16.1804C7.29712 15.8 7.53807 15.4687 7.80844 15.1961C8.09117 14.911 8.43732 14.6817 8.83761 14.5145C9.2365 14.3481 9.67856 14.2638 10.1514 14.2638C10.3371 14.2638 10.5167 14.3441 10.8636 14.5822C11.0771 14.7289 11.3268 14.8987 11.6055 15.0864C11.8438 15.2465 12.1666 15.3964 12.5654 15.5322C12.9544 15.6649 13.3494 15.7322 13.7393 15.7322C14.1292 15.7322 14.524 15.6649 14.9135 15.5322C15.3118 15.3966 15.6347 15.2466 15.8727 15.0865C16.1488 14.9006 16.3986 14.7309 16.6153 14.5821C16.9617 14.344 17.1414 14.2637 17.3271 14.2637C17.8001 14.2637 18.2421 14.3481 18.6408 14.5146C19.0408 14.6815 19.3871 14.9108 19.6701 15.1963C19.9404 15.469 20.1815 15.8001 20.3863 16.1804C20.5838 16.5469 20.7437 16.9292 20.8614 17.3168C20.9751 17.6915 21.0702 18.1013 21.144 18.535C21.2171 18.9649 21.2668 19.3727 21.2914 19.7472C21.3155 20.1142 21.3278 20.495 21.3278 20.8797C21.3278 21.8808 21.0259 22.6912 20.4306 23.2889C19.8427 23.8787 19.0647 24.1779 18.1187 24.1779H9.35906C8.41303 24.1779 7.63536 23.8788 7.04729 23.2889C6.45186 22.6916 6.14998 21.8811 6.14998 20.8795C6.15012 20.4931 6.16247 20.112 6.18676 19.7468Z" fill="#235884"/>
</svg>
