<svg width="28" height="28" viewBox="0 0 28 28" fill="none" xmlns="http://www.w3.org/2000/svg">
<path fill-rule="evenodd" clip-rule="evenodd" d="M11.3911 7C7.97265 7 5.20142 9.88529 5.20142 13.4444C5.20142 21.4444 15.4464 23 15.4464 23V19.8889H16.0867C19.5052 19.8889 22.2764 17.0036 22.2764 13.4444C22.2764 9.88529 19.5052 7 16.0867 7H11.3911ZM16.4523 9.9932C17.1345 10.5293 17.5808 11.347 17.5808 12.3983C17.5808 13.6785 16.8012 14.4806 16.0292 14.9236C15.5717 15.186 15.0724 15.3537 14.6211 15.4535C14.6164 15.9403 14.236 16.3333 13.7674 16.3333C13.2959 16.3333 12.9136 15.9354 12.9136 15.4444V14.6829C12.9136 14.2132 13.2645 13.8246 13.7147 13.7957C14.122 13.7695 14.7296 13.6394 15.2051 13.3665C15.6663 13.1019 15.8733 12.7934 15.8733 12.3983C15.8733 11.9264 15.6953 11.6256 15.4236 11.4121C15.123 11.1758 14.6659 11.0213 14.1309 11.002C13.5995 10.9828 13.0703 11.1007 12.6683 11.3152C12.2645 11.5307 12.0657 11.7964 12.0054 12.045C11.8897 12.521 11.4255 12.8092 10.9683 12.6888C10.5112 12.5685 10.2344 12.0851 10.35 11.6092C10.5671 10.7155 11.2007 10.1007 11.8894 9.73316C12.58 9.36462 13.4034 9.19693 14.19 9.22533C14.973 9.2536 15.7992 9.47987 16.4523 9.9932ZM12.8852 17.6667C12.8852 17.1758 13.2674 16.7778 13.7389 16.7778C14.2104 16.7778 14.5927 17.1758 14.5927 17.6667C14.5927 18.1576 14.2104 18.5556 13.7389 18.5556C13.2674 18.5556 12.8852 18.1576 12.8852 17.6667Z" fill="#235884"/>
</svg>
