<svg width="43" height="43" viewBox="0 0 43 43" fill="none" xmlns="http://www.w3.org/2000/svg">
<path d="M21.6861 21.8655C19.7371 21.8655 18.0494 21.1665 16.6704 19.7873C15.2914 18.4083 14.5924 16.7211 14.5924 14.7718C14.5924 12.8232 15.2914 11.1358 16.6706 9.75635C18.0498 8.37761 19.7373 7.67857 21.6861 7.67857C23.6353 7.67857 25.3226 8.37761 26.7016 9.75657C28.0805 11.1355 28.7798 12.823 28.7798 14.7718C28.7798 16.7211 28.0805 18.4085 26.7013 19.7875C25.3221 21.1662 23.6347 21.8655 21.6861 21.8655Z" fill="white"/>
<path d="M9.27401 30.3254C9.31378 29.7515 9.39422 29.1255 9.51263 28.4645C9.63217 27.7985 9.78609 27.1689 9.97034 26.5934C10.1607 25.9987 10.4195 25.4113 10.7395 24.8484C11.0716 24.2642 11.4616 23.7555 11.8994 23.3369C12.3571 22.899 12.9175 22.5469 13.5655 22.2901C14.2113 22.0346 14.9269 21.9051 15.6925 21.9051C15.9931 21.9051 16.2839 22.0285 16.8454 22.3941C17.191 22.6195 17.5952 22.8801 18.0464 23.1684C18.4322 23.4142 18.9548 23.6445 19.6004 23.853C20.2302 24.0568 20.8697 24.1602 21.5008 24.1602C22.132 24.1602 22.7713 24.0568 23.4018 23.853C24.0467 23.6447 24.5693 23.4144 24.9547 23.1686C25.4016 22.883 25.806 22.6224 26.1568 22.3939C26.7176 22.0283 27.0086 21.9049 27.3092 21.9049C28.075 21.9049 28.7904 22.0346 29.436 22.2903C30.0836 22.5467 30.6442 22.8988 31.1023 23.3371C31.5398 23.756 31.9301 24.2645 32.2618 24.8484C32.5815 25.4113 32.8404 25.9984 33.0309 26.5937C33.2149 27.1691 33.3689 27.7985 33.4884 28.4645C33.6068 29.1246 33.6872 29.7509 33.727 30.3261C33.7661 30.8896 33.7859 31.4745 33.7859 32.0652C33.7859 33.6026 33.2972 34.8472 32.3335 35.7651C31.3816 36.6708 30.1222 37.1303 28.5907 37.1303H14.4097C12.8781 37.1303 11.6192 36.6711 10.6671 35.7651C9.70317 34.8479 9.21446 33.6031 9.21446 32.065C9.21469 31.4716 9.23468 30.8863 9.27401 30.3254Z" fill="white"/>
</svg>
