<svg width="44" height="44" viewBox="0 0 44 44" fill="none" xmlns="http://www.w3.org/2000/svg">
<path d="M15.2927 37.7138C15.7528 37.7138 16.2238 37.7111 16.7052 37.7111H25.8169C26.2976 37.7111 26.7687 37.7138 27.2288 37.7138C31.4448 37.7138 34.6662 37.4981 34.6662 33.0907C34.6662 28.4776 31.1383 24.6906 26.6326 24.2789C26.5968 25.8928 21.2625 29.8756 21.2625 29.8756C21.2625 29.8756 15.9269 25.8931 15.8908 24.2792C11.3858 24.6906 7.85718 28.4776 7.85718 33.0907C7.85718 37.4981 11.0773 37.7138 15.2927 37.7138ZM25.2423 31.6951C25.2423 31.5637 25.3608 31.4579 25.5081 31.4579H26.9491V30.0175C26.9491 29.8716 27.0543 29.7518 27.1856 29.7518H28.6078C28.7385 29.7518 28.8443 29.8706 28.8443 30.0175V31.4583H30.2847C30.4307 31.4583 30.5501 31.5641 30.5501 31.6954V33.1169C30.5501 33.2483 30.4317 33.3541 30.2847 33.3541H28.844V34.7945C28.844 34.9411 28.7378 35.0599 28.6068 35.0599H27.1853C27.0539 35.0599 26.9481 34.9415 26.9481 34.7945V33.3538H25.5077C25.3611 33.3538 25.242 33.248 25.242 33.1166L25.2423 31.6951Z" fill="white"/>
<path d="M21.2641 25.4364C25.3392 25.4364 28.6422 19.3089 28.6422 15.2342C28.6422 11.1602 25.3392 7.85713 21.2641 7.85713C17.1898 7.85713 13.8867 11.1602 13.8867 15.2342C13.8867 19.3089 17.1898 25.4364 21.2641 25.4364Z" fill="white"/>
</svg>
