<svg width="43" height="43" viewBox="0 0 43 43" fill="none" xmlns="http://www.w3.org/2000/svg">
<path d="M33.8881 7.67857H30.8167V10.75C30.8167 11.3643 30.3048 11.7738 29.7929 11.7738C29.281 11.7738 28.7691 11.3643 28.7691 10.75V7.67857H12.3881V10.75C12.3881 11.3643 11.8762 11.7738 11.3643 11.7738C10.8524 11.7738 10.3405 11.3643 10.3405 10.75V7.67857H7.26908C5.73337 7.67857 4.60718 9.00953 4.60718 10.75V14.4357H37.3691V10.75C37.3691 9.00953 35.5262 7.67857 33.8881 7.67857ZM4.60718 16.5857V35.3214C4.60718 37.1643 5.73337 38.3929 7.37146 38.3929H33.9905C35.6286 38.3929 37.4715 37.0619 37.4715 35.3214V16.5857H4.60718ZM13.7191 33.7857H11.2619C10.8524 33.7857 10.4429 33.4786 10.4429 32.9667V30.4071C10.4429 29.9976 10.75 29.5881 11.2619 29.5881H13.8215C14.231 29.5881 14.6405 29.8952 14.6405 30.4071V32.9667C14.5381 33.4786 14.231 33.7857 13.7191 33.7857ZM13.7191 24.5714H11.2619C10.8524 24.5714 10.4429 24.2643 10.4429 23.7524V21.1929C10.4429 20.7833 10.75 20.3738 11.2619 20.3738H13.8215C14.231 20.3738 14.6405 20.681 14.6405 21.1929V23.7524C14.5381 24.2643 14.231 24.5714 13.7191 24.5714ZM21.9096 33.7857H19.35C18.9405 33.7857 18.531 33.4786 18.531 32.9667V30.4071C18.531 29.9976 18.8381 29.5881 19.35 29.5881H21.9096C22.3191 29.5881 22.7286 29.8952 22.7286 30.4071V32.9667C22.7286 33.4786 22.4215 33.7857 21.9096 33.7857ZM21.9096 24.5714H19.35C18.9405 24.5714 18.531 24.2643 18.531 23.7524V21.1929C18.531 20.7833 18.8381 20.3738 19.35 20.3738H21.9096C22.3191 20.3738 22.7286 20.681 22.7286 21.1929V23.7524C22.7286 24.2643 22.4215 24.5714 21.9096 24.5714ZM30.1 33.7857H27.5405C27.131 33.7857 26.7215 33.4786 26.7215 32.9667V30.4071C26.7215 29.9976 27.0286 29.5881 27.5405 29.5881H30.1C30.5096 29.5881 30.9191 29.8952 30.9191 30.4071V32.9667C30.9191 33.4786 30.6119 33.7857 30.1 33.7857ZM30.1 24.5714H27.5405C27.131 24.5714 26.7215 24.2643 26.7215 23.7524V21.1929C26.7215 20.7833 27.0286 20.3738 27.5405 20.3738H30.1C30.5096 20.3738 30.9191 20.681 30.9191 21.1929V23.7524C30.9191 24.2643 30.6119 24.5714 30.1 24.5714Z" fill="white"/>
</svg>
