<svg width="25" height="25" viewBox="0 0 25 25" fill="none" xmlns="http://www.w3.org/2000/svg">
<path d="M4.54452 18.8378H20.4555C21.307 18.8378 22 18.1465 22 17.2968V7.54105C22 6.6953 21.3132 6.00783 20.4672 6.00128C20.4645 6.00116 20.462 6 20.4595 6H20.4555H4.54452H4.54054C4.53784 6 4.53541 6.00116 4.53284 6.00128C3.68682 6.00783 3 6.6953 3 7.54105V17.2968C2.99974 18.1465 3.69286 18.8378 4.54452 18.8378ZM4.70576 17.8108L9.96915 12.1088L12.1559 14.0839C12.2536 14.1721 12.3766 14.2162 12.4997 14.2162C12.623 14.2162 12.746 14.1721 12.8438 14.0839L15.0305 12.1088L20.294 17.8108H4.70576ZM20.6201 7.06002C20.8237 7.12922 20.9728 7.31549 20.9728 7.54093V17.0326L15.7925 11.4205L20.6201 7.06002ZM19.125 7.02703L12.4997 13.0106L5.87491 7.02703H19.125ZM4.02677 7.54105C4.02677 7.31562 4.17595 7.12934 4.37955 7.06015L9.20709 11.4206L4.02677 17.0326V7.54105Z" fill="#235884"/>
</svg>
