<svg width="28" height="28" viewBox="0 0 28 28" fill="none" xmlns="http://www.w3.org/2000/svg">
<path d="M19.9929 12.4937C19.2525 13.5409 18.1788 14.2517 16.9161 14.3478C17.9745 15.6485 18.6587 17.2968 18.7904 19.1058C18.8398 19.7845 18.805 20.115 18.7533 20.388C19.3919 20.2834 19.9782 20.1312 20.4819 19.9357C22.1763 19.2781 22.5319 18.3061 22.5319 17.6065C22.5319 15.4915 21.5263 13.6196 19.9929 12.4937Z" fill="#235884"/>
<path d="M15.2522 12.721C15.6752 12.9704 16.141 13.102 16.6245 13.102C18.4462 13.102 19.8487 11.2457 19.8487 9.05099C19.8487 6.85606 18.446 5 16.6245 5C15.8798 5 15.1772 5.31159 14.6083 5.88602C15.4044 6.96082 15.8582 8.36127 15.8582 9.85279C15.8582 10.8411 15.6592 11.8255 15.2522 12.721Z" fill="#235884"/>
<path d="M14.5875 13.8472C13.6113 15.1486 12.2924 15.7949 10.937 15.7949C9.49681 15.7949 8.20664 15.0739 7.28649 13.8472C5.4613 15.1065 4.25281 17.2806 4.25281 19.7469C4.25281 20.5064 4.64736 21.565 6.52696 22.2945C7.6994 22.7496 9.26559 23.0002 10.937 23.0002C12.6084 23.0002 14.1746 22.7496 15.347 22.2945C17.2266 21.565 17.6212 20.5064 17.6212 19.7469C17.6212 17.2806 16.4127 15.1065 14.5875 13.8472Z" fill="#235884"/>
<path d="M10.9369 14.5377C13.0438 14.5377 14.6656 12.3908 14.6656 9.85281C14.6656 7.31475 13.0436 5.16797 10.9369 5.16797C8.83045 5.16797 7.20825 7.31433 7.20825 9.85281C7.20825 12.3913 8.83061 14.5377 10.9369 14.5377Z" fill="#235884"/>
</svg>
